<?xml version="1.0" standalone="no"?>
<!DOCTYPE svg PUBLIC "-//W3C//DTD SVG 20010904//EN"
 "http://www.w3.org/TR/2001/REC-SVG-20010904/DTD/svg10.dtd">
<svg version="1.0" xmlns="http://www.w3.org/2000/svg"
viewBox="0 0 1280.000000 768.000000" preserveAspectRatio="xMidYMid meet">
<metadata>
Created by potrace 1.15, written by Peter Selinger 2001-2017
</metadata>
<g transform="translate(0.000000,768.000000) scale(0.100000,-0.100000)"
fill="#000000" stroke="none">
<path d="M6236 6161 c-212 -70 -336 -290 -353 -626 -5 -96 -2 -124 20 -215 30
-122 82 -271 200 -570 108 -275 127 -336 171 -555 47 -235 106 -567 106 -593
0 -12 4 -23 8 -26 5 -3 25 93 46 212 94 541 116 628 259 1012 77 210 139 398
164 500 26 107 23 320 -5 455 -42 198 -144 343 -279 396 -83 32 -254 37 -337
10z"/>
<path d="M4673 5231 c-223 -77 -297 -319 -153 -501 70 -88 216 -163 525 -270
204 -70 318 -124 441 -206 97 -64 240 -196 316 -292 l52 -65 14 34 c48 116
-54 421 -232 694 -121 185 -280 363 -421 470 -70 53 -219 128 -287 144 -71 17
-195 13 -255 -8z"/>
<path d="M7763 5226 c-143 -47 -281 -143 -430 -299 -228 -238 -429 -595 -474
-840 -11 -63 -6 -150 11 -177 8 -13 12 -11 27 10 41 59 138 163 198 214 144
122 241 174 535 290 375 147 454 186 548 271 74 67 107 139 107 235 0 58 -5
86 -23 121 -36 74 -87 125 -160 161 -60 30 -76 33 -167 35 -83 3 -112 -1 -172
-21z"/>
<path d="M2570 5010 c-238 -31 -447 -130 -574 -273 -143 -159 -212 -399 -186
-640 37 -338 228 -568 555 -670 125 -39 218 -50 367 -44 142 6 216 21 421 84
80 25 121 33 128 26 15 -15 -717 -665 -1032 -915 -484 -385 -771 -525 -1143
-558 -295 -27 -538 43 -697 200 -122 120 -164 223 -164 400 0 132 16 194 72
277 38 56 74 88 140 122 96 48 276 67 351 35 40 -16 92 -61 92 -78 0 -6 -23
-23 -50 -38 -66 -37 -93 -89 -94 -178 -1 -107 44 -170 160 -222 66 -30 196
-32 269 -4 115 44 182 115 217 230 59 194 -46 392 -264 496 -105 51 -195 70
-329 70 -396 0 -685 -172 -783 -467 -24 -71 -26 -92 -26 -239 0 -142 3 -168
24 -230 100 -296 324 -481 666 -549 111 -22 336 -30 460 -16 367 42 704 193
1105 496 181 137 256 201 630 540 160 145 316 285 348 311 79 65 88 53 48 -65
-67 -199 -85 -461 -43 -621 62 -233 210 -431 403 -539 169 -94 412 -131 639
-96 120 18 186 38 278 83 156 77 272 191 343 337 62 128 70 210 32 344 -29
106 -81 191 -167 276 -125 125 -249 175 -431 175 -200 0 -348 -71 -420 -201
-27 -49 -30 -63 -30 -144 0 -79 4 -97 28 -148 46 -93 108 -127 232 -127 97 0
167 34 209 103 25 41 30 61 34 132 3 48 0 97 -7 116 l-11 32 50 -5 c70 -7 171
-59 219 -114 112 -128 114 -337 3 -476 -74 -94 -202 -171 -340 -205 -96 -24
-283 -21 -387 6 -288 74 -441 270 -469 601 -7 81 8 246 30 337 86 342 330 568
728 673 190 50 316 65 561 64 200 0 231 -2 345 -27 644 -137 1018 -493 1071
-1018 25 -255 -39 -481 -167 -587 -151 -126 -428 -148 -562 -45 -76 58 -105
196 -59 278 24 42 106 105 138 105 14 0 19 -7 19 -27 0 -48 45 -109 95 -128
83 -32 165 6 210 100 23 46 27 64 21 102 -12 91 -83 171 -180 203 -24 8 -70
11 -121 8 -205 -11 -392 -176 -411 -364 -25 -238 121 -428 368 -480 87 -19
267 -13 368 11 214 52 383 201 456 402 15 41 32 72 37 70 6 -2 18 -26 28 -55
54 -159 167 -291 310 -361 128 -62 191 -76 354 -76 106 0 154 5 199 19 235 71
348 224 334 452 -6 98 -34 161 -103 230 -110 110 -299 161 -442 119 -29 -9
-69 -32 -96 -56 -89 -77 -95 -183 -16 -273 70 -79 150 -85 219 -16 23 23 43
56 50 79 12 47 17 48 68 22 73 -38 116 -107 116 -191 1 -109 -80 -194 -214
-224 -230 -53 -443 41 -536 237 -46 98 -64 188 -64 333 0 304 96 549 296 748
183 183 467 324 786 388 98 20 142 23 328 22 501 -1 857 -117 1082 -352 175
-184 262 -440 244 -727 -11 -193 -57 -313 -162 -425 -107 -113 -241 -171 -442
-191 -275 -28 -546 98 -640 299 -24 51 -27 69 -27 162 0 92 3 112 27 161 48
103 146 176 252 187 l48 5 -7 -42 c-8 -51 11 -174 36 -222 24 -48 80 -95 126
-108 53 -15 158 -14 196 2 94 40 148 128 155 254 4 74 2 88 -22 137 -67 137
-225 216 -431 216 -107 0 -184 -18 -280 -64 -245 -120 -391 -429 -315 -667 75
-233 298 -413 590 -476 125 -27 364 -24 483 5 310 77 528 291 618 607 54 190
29 456 -63 658 -62 135 -21 111 282 -163 460 -416 633 -562 840 -710 307 -219
611 -359 905 -417 126 -25 436 -25 555 0 331 69 543 222 664 478 54 113 71
188 70 309 -1 305 -170 540 -461 641 -157 54 -417 76 -548 45 -268 -63 -450
-281 -416 -496 21 -129 92 -224 209 -278 48 -22 71 -27 147 -27 114 0 181 22
240 79 106 102 82 281 -47 347 -21 11 -38 23 -38 28 0 19 43 61 83 80 84 41
262 22 379 -41 133 -71 198 -198 198 -388 0 -161 -49 -288 -153 -392 -145
-145 -330 -210 -597 -210 -500 0 -863 199 -1745 961 -433 373 -576 504 -566
514 7 7 56 -3 158 -31 315 -89 455 -102 656 -61 202 41 338 110 467 239 98 97
156 197 192 327 29 106 31 344 4 448 -43 169 -148 326 -280 419 -258 183 -650
236 -936 125 -263 -101 -450 -346 -424 -553 24 -190 148 -302 344 -314 120 -7
189 14 251 76 54 55 74 110 66 188 -13 130 -98 202 -241 207 -34 1 -56 7 -56
13 0 17 68 105 107 138 139 118 447 111 671 -15 84 -47 193 -162 231 -243 115
-239 56 -555 -132 -721 -60 -53 -186 -118 -272 -140 -183 -48 -421 -20 -775
90 -281 88 -759 181 -1150 226 -245 27 -508 30 -662 5 -475 -75 -906 -315
-1128 -627 -48 -69 -127 -217 -158 -299 l-14 -35 -10 25 c-87 203 -198 372
-324 490 -360 336 -904 520 -1422 482 -390 -30 -980 -145 -1382 -271 -254 -79
-470 -117 -615 -108 -184 12 -317 69 -436 187 -122 121 -170 243 -170 430 -1
179 46 295 166 415 117 118 269 182 451 192 193 11 332 -45 416 -167 20 -30
38 -57 38 -60 0 -3 -30 -7 -67 -8 -127 -3 -208 -65 -233 -177 -37 -168 83
-295 280 -295 174 0 300 76 352 213 105 276 -122 587 -498 683 -107 27 -271
38 -374 24z"/>
</g>
</svg>
