<?xml version="1.0" standalone="no"?><svg xmlns="http://www.w3.org/2000/svg" viewBox="0 0 1440 320"><path fill="#f3f4f5" fill-opacity="1" d="M0,128L0,64L51.4,64L51.4,96L102.9,96L102.9,224L154.3,224L154.3,64L205.7,64L205.7,0L257.1,0L257.1,96L308.6,96L308.6,0L360,0L360,192L411.4,192L411.4,288L462.9,288L462.9,128L514.3,128L514.3,96L565.7,96L565.7,64L617.1,64L617.1,192L668.6,192L668.6,64L720,64L720,224L771.4,224L771.4,256L822.9,256L822.9,192L874.3,192L874.3,128L925.7,128L925.7,192L977.1,192L977.1,192L1028.6,192L1028.6,256L1080,256L1080,192L1131.4,192L1131.4,128L1182.9,128L1182.9,32L1234.3,32L1234.3,128L1285.7,128L1285.7,320L1337.1,320L1337.1,160L1388.6,160L1388.6,32L1440,32L1440,0L1388.6,0L1388.6,0L1337.1,0L1337.1,0L1285.7,0L1285.7,0L1234.3,0L1234.3,0L1182.9,0L1182.9,0L1131.4,0L1131.4,0L1080,0L1080,0L1028.6,0L1028.6,0L977.1,0L977.1,0L925.7,0L925.7,0L874.3,0L874.3,0L822.9,0L822.9,0L771.4,0L771.4,0L720,0L720,0L668.6,0L668.6,0L617.1,0L617.1,0L565.7,0L565.7,0L514.3,0L514.3,0L462.9,0L462.9,0L411.4,0L411.4,0L360,0L360,0L308.6,0L308.6,0L257.1,0L257.1,0L205.7,0L205.7,0L154.3,0L154.3,0L102.9,0L102.9,0L51.4,0L51.4,0L0,0L0,0Z"></path></svg>